<svg version="1.1" id="Layer_1" xmlns="http://www.w3.org/2000/svg" xmlns:xlink="http://www.w3.org/1999/xlink" x="0px" y="0px"
	 viewBox="0 0 400 100" style="enable-background:new 0 0 400 100;" xml:space="preserve">
<g>
	<text class="title_brand" transform="matrix(1 0 0 1 110.4072 47.249)"><tspan x="0" y="0" style="fill:#3D3F41; font-size:38.0829px;">TrendyShop</tspan></text>
</g>
<text class="slogan_brand" transform="matrix(1 0 0 1 109.9399 79.3877)" style="fill:#3D3F41; font-size:22.215px;">e-Commerce with style</text>
<polygon class="element_inner" points="80.9,32.8 70.7,56.4 31.3,56.4 31.9,54.4 23.8,32.8 "/>
<path style="opacity:0.8;fill:#231F20;" d="M70.7,56.4l13.5-31.5H29.1l1.5,3.9h47.7L68.1,52.5H35.4L23.5,21H12.3v3.9h8.5l11.1,29.6
	l-0.6,1.9l-3.1,9.2c-0.2,0.6-0.1,1.3,0.3,1.8c0.4,0.5,1,0.8,1.6,0.8H36c0,4.4,3.5,7.9,7.9,7.9s7.9-3.5,7.9-7.9h7.9
	c0,4.4,3.5,7.9,7.9,7.9c4.4,0,7.9-3.5,7.9-7.9s-3.5-7.9-7.9-7.9c-2.9,0-5.5,1.6-6.8,3.9h-10c-1.4-2.4-3.9-3.9-6.8-3.9
	c-2.9,0-5.5,1.6-6.8,3.9h-4.2l2.6-7.9H70.7z M67.5,64.3c2.2,0,3.9,1.8,3.9,3.9s-1.8,3.9-3.9,3.9c-2.2,0-3.9-1.8-3.9-3.9
	S65.3,64.3,67.5,64.3z M43.8,64.3c2.2,0,3.9,1.8,3.9,3.9s-1.8,3.9-3.9,3.9c-2.2,0-3.9-1.8-3.9-3.9S41.7,64.3,43.8,64.3z"/>
</svg>